<?xml version="1.0" encoding="iso-8859-1"?>
<!-- Generator: Adobe Illustrator 19.0.0, SVG Export Plug-In . SVG Version: 6.00 Build 0)  -->
<svg version="1.1" id="Layer_1" xmlns="http://www.w3.org/2000/svg" xmlns:xlink="http://www.w3.org/1999/xlink" x="0px" y="0px"
	 viewBox="0 0 512 512" style="fill: #fff; enable-background:new 0 0 512 512;" xml:space="preserve" preserveAspectRatio="xMinYMin meet">
<g>
	<g>
		<path d="M379.297,7.836H24.951C11.193,7.836,0,19.052,0,32.84V479.16c0,13.786,11.193,25.002,24.951,25.002h112.974
			c4.329,0,7.837-3.509,7.837-7.837c0-4.328-3.508-7.837-7.837-7.837H24.951c-5.116,0-9.278-4.185-9.278-9.33V32.84
			c0-5.144,4.162-9.33,9.278-9.33h354.346c4.329,0,7.837-3.509,7.837-7.837C387.134,11.345,383.626,7.836,379.297,7.836z"/>
	</g>
</g>
<g>
	<g>
		<path d="M487.049,7.836h-76.405c-4.329,0-7.837,3.509-7.837,7.837c0,4.328,3.508,7.837,7.837,7.837h76.405
			c5.116,0,9.278,4.185,9.278,9.33V479.16c0,5.144-4.162,9.33-9.278,9.33H171.362c-4.329,0-7.837,3.509-7.837,7.837
			s3.508,7.837,7.837,7.837h315.687c13.758,0,24.951-11.216,24.951-25.003V32.84C512,19.052,500.807,7.836,487.049,7.836z"/>
	</g>
</g>
<g>
	<g>
		<path d="M446.858,95.389H142.885c-7.467,0-13.542,6.082-13.542,13.56v28.097c0,7.476,6.074,13.56,13.542,13.56h303.973
			c7.468,0,13.542-6.082,13.542-13.56v-28.097C460.4,101.473,454.326,95.389,446.858,95.389z M444.726,134.931h-299.71v-23.869
			h299.71V134.931z"/>
	</g>
</g>
<g>
	<g>
		<path d="M446.858,184.057h-86.369c-4.329,0-7.837,3.509-7.837,7.837s3.508,7.837,7.837,7.837h84.238v23.869h-299.71v-23.869
			h186.216c4.329,0,7.837-3.509,7.837-7.837s-3.508-7.837-7.837-7.837H142.885c-7.467,0-13.542,6.082-13.542,13.56v28.097
			c0,7.476,6.074,13.56,13.542,13.56h303.973c7.468,0,13.542-6.082,13.542-13.56v-28.097
			C460.4,190.141,454.326,184.057,446.858,184.057z"/>
	</g>
</g>
<g>
	<g>
		<path d="M446.858,272.725H142.885c-7.467,0-13.542,6.082-13.542,13.56v28.097c0,7.476,6.074,13.56,13.542,13.56h303.973
			c7.468,0,13.542-6.082,13.542-13.56v-28.097C460.4,278.809,454.326,272.725,446.858,272.725z M444.726,312.268h-299.71V288.4
			h299.71V312.268z"/>
	</g>
</g>
<g>
	<g>
		<path d="M446.858,361.395H142.885c-7.467,0-13.542,6.082-13.542,13.559v28.097c0,7.476,6.074,13.559,13.542,13.559h303.973
			c7.468,0,13.542-6.082,13.542-13.559v-28.097C460.4,367.478,454.326,361.395,446.858,361.395z M444.726,400.936h-299.71v-23.868
			h299.71V400.936z"/>
	</g>
</g>
<g>
	<g>
		<path d="M79.208,95.389c-15.223,0-27.608,12.385-27.608,27.607c0,15.222,12.385,27.607,27.608,27.607
			c15.222,0,27.607-12.385,27.607-27.607C106.816,107.774,94.431,95.389,79.208,95.389z M79.208,134.931
			c-6.581,0-11.935-5.354-11.935-11.934c0-6.581,5.354-11.934,11.935-11.934s11.934,5.354,11.934,11.934
			S85.789,134.931,79.208,134.931z"/>
	</g>
</g>
<g>
	<g>
		<path d="M79.208,184.057c-15.223,0-27.608,12.385-27.608,27.607c0,15.222,12.385,27.607,27.608,27.607
			c15.222,0,27.607-12.385,27.607-27.607C106.816,196.442,94.431,184.057,79.208,184.057z M79.208,223.599
			c-6.581,0-11.935-5.354-11.935-11.934c0-6.58,5.354-11.934,11.935-11.934s11.934,5.354,11.934,11.934
			C91.142,218.245,85.789,223.599,79.208,223.599z"/>
	</g>
</g>
<g>
	<g>
		<path d="M79.208,272.726c-15.223,0-27.608,12.385-27.608,27.607c0,15.222,12.385,27.607,27.608,27.607
			c15.222,0,27.607-12.385,27.607-27.607C106.816,285.111,94.431,272.726,79.208,272.726z M79.208,312.268
			c-6.581,0-11.935-5.353-11.935-11.934c0-6.581,5.354-11.934,11.935-11.934s11.934,5.353,11.934,11.934
			C91.142,306.915,85.789,312.268,79.208,312.268z"/>
	</g>
</g>
<g>
	<g>
		<path d="M79.208,361.394c-15.223,0-27.608,12.384-27.608,27.607c0,15.223,12.385,27.607,27.608,27.607
			c15.222,0,27.607-12.385,27.607-27.607C106.816,373.779,94.431,361.394,79.208,361.394z M79.208,400.936
			c-6.581,0-11.935-5.354-11.935-11.934c0-6.581,5.354-11.934,11.935-11.934s11.934,5.353,11.934,11.934
			C91.142,395.582,85.789,400.936,79.208,400.936z"/>
	</g>
</g>
<g>
</g>
<g>
</g>
<g>
</g>
<g>
</g>
<g>
</g>
<g>
</g>
<g>
</g>
<g>
</g>
<g>
</g>
<g>
</g>
<g>
</g>
<g>
</g>
<g>
</g>
<g>
</g>
<g>
</g>
</svg>
